<svg xmlns="http://www.w3.org/2000/svg" width="150" height="150" viewBox="0 0 636 619" version="1.1"><path d="M 321.583 50.750 C 321.225 55.013, 320.716 60.975, 320.452 64 C 320.049 68.625, 320.150 69.102, 321.085 67 C 322.218 64.453, 323.714 43, 322.759 43 C 322.471 43, 321.942 46.487, 321.583 50.750 M 316.415 74.165 C 314.921 77.054, 313.478 85, 314.448 85 C 314.673 85, 315.750 82.638, 316.842 79.750 C 317.934 76.862, 319.140 73.713, 319.521 72.750 C 320.743 69.663, 318.126 70.855, 316.415 74.165 M 294.482 88.924 C 285.977 95.622, 277.308 105.687, 274.023 112.674 C 270.763 119.609, 272.107 118.716, 275.879 111.440 C 279.505 104.447, 293.194 90.526, 298.140 88.802 C 300.954 87.820, 302.854 85, 300.700 85 C 300.020 85, 297.222 86.766, 294.482 88.924 M 344.059 137.558 C 329.584 155.858, 325.900 164.288, 325.208 180.700 C 324.457 198.467, 328.615 210.496, 342.939 232 C 350.029 242.645, 352.060 245.147, 349.504 240.087 C 347.344 235.810, 347.325 231.635, 349.422 221.500 C 351.892 209.561, 351.688 205.781, 348.333 201.302 L 345.500 197.518 350 200.966 C 353.334 203.520, 352.260 202.066, 345.858 195.354 C 336.348 185.384, 330 174.311, 330 167.694 C 330 162.768, 335.801 151.998, 344.104 141.510 C 350.228 133.774, 352.793 129.460, 351.838 128.505 C 351.648 128.315, 348.148 132.389, 344.059 137.558 M 298.882 300.028 C 293.254 306.022, 285.665 320.849, 283.572 329.937 C 281.263 339.965, 282.115 355.803, 285.463 365.093 C 290.211 378.269, 295.895 387.568, 306.109 398.868 C 317.782 411.785, 329.857 423.476, 330.676 422.657 C 331.498 421.835, 326.070 414.839, 325.084 415.448 C 324.012 416.110, 308.136 399.654, 304.072 393.668 C 300.031 387.717, 297 379.342, 297 374.130 C 297 368.339, 300.367 358.514, 305.326 349.838 C 307.735 345.624, 309.093 342.411, 308.345 342.698 C 307.598 342.985, 303.951 341.457, 300.243 339.304 C 288.752 332.631, 287.542 332.443, 285.730 337.046 C 285.413 337.853, 285.123 337.244, 285.079 335.676 C 284.872 328.287, 293.446 309.640, 301.460 300.048 C 303.407 297.717, 305 295.628, 305 295.405 C 305 294.112, 303.057 295.580, 298.882 300.028 M 359.675 316.122 C 358.671 316.706, 357.600 316.933, 357.294 316.627 C 356.227 315.561, 353.074 318.029, 353.635 319.491 C 354.120 320.756, 354.558 320.763, 356.920 319.541 C 358.419 318.766, 360.230 317.427, 360.945 316.566 C 362.455 314.747, 362.195 314.656, 359.675 316.122 M 255.200 335.200 C 253.493 336.907, 253.715 337.865, 255.750 337.567 C 256.712 337.426, 257.645 336.566, 257.823 335.656 C 258.202 333.716, 256.908 333.492, 255.200 335.200 M 422.609 360.020 C 420.759 364.644, 420.611 366, 421.958 366 C 422.971 366, 428.016 357.965, 427.978 356.412 C 427.966 355.910, 427.037 356.625, 425.915 358 C 423.943 360.416, 423.896 360.424, 424.505 358.250 C 425.534 354.576, 424.342 355.689, 422.609 360.020 M 216.941 360.682 C 219.661 366.285, 221.536 367.428, 220.637 362.937 C 220.266 361.081, 219.493 359.098, 218.918 358.531 C 218.193 357.815, 218.191 358.415, 218.912 360.500 C 219.768 362.973, 219.735 363.177, 218.725 361.663 C 215.739 357.187, 215.063 356.815, 216.941 360.682 M 238.667 433.414 C 239.157 434.808, 238.995 435.115, 238.070 434.543 C 237.068 433.924, 237.040 434.206, 237.935 435.879 C 238.560 437.046, 239.505 438, 240.035 438 C 241.478 438, 241.199 435.640, 239.498 433.441 C 238.041 431.559, 238.016 431.558, 238.667 433.414 M 332.172 505.076 C 330.735 511.299, 330.662 516.673, 332.002 517.501 C 332.553 517.842, 333.453 516.939, 334.002 515.495 C 335.327 512.010, 335.272 510.074, 333.903 512 C 333.124 513.096, 332.983 511.680, 333.381 506.750 C 333.680 503.038, 333.794 500, 333.634 500 C 333.474 500, 332.816 502.284, 332.172 505.076 M 307.074 507.068 C 306.827 508.962, 310.262 517.956, 311.048 517.471 C 312.311 516.690, 312.236 512.880, 310.919 511 C 310.104 509.835, 309.995 510.058, 310.432 512 C 310.763 513.468, 310.202 512.849, 309.072 510.500 C 308.014 508.300, 307.115 506.756, 307.074 507.068 M 338.542 526.750 C 336.626 530.462, 334.429 534.625, 333.661 536 C 331.943 539.075, 328.844 548.178, 329.345 548.679 C 329.547 548.880, 330.518 546.897, 331.504 544.272 C 332.490 541.648, 335.484 535.112, 338.158 529.750 C 340.831 524.388, 342.795 520, 342.522 520 C 342.249 520, 340.458 523.038, 338.542 526.750 M 306.301 531.949 C 308.575 536.871, 310.601 540.732, 310.804 540.530 C 311.259 540.075, 303.316 523, 302.649 523 C 302.384 523, 304.028 527.027, 306.301 531.949 M 313.653 549 C 314.001 550.375, 314.903 553.075, 315.658 555 C 316.832 557.995, 316.948 558.083, 316.461 555.610 C 316.148 554.021, 315.246 551.321, 314.456 549.610 C 313.376 547.271, 313.177 547.120, 313.653 549 M 333.450 552.099 C 332.028 554.904, 331.033 557.367, 331.238 557.571 C 331.443 557.776, 332.818 555.482, 334.295 552.472 C 335.771 549.462, 336.766 547, 336.506 547 C 336.246 547, 334.871 549.295, 333.450 552.099 M 310.113 554.530 C 310.326 555.097, 311.825 559.109, 313.445 563.446 C 315.064 567.784, 316.552 570.843, 316.752 570.245 C 317.102 569.195, 311.517 555.129, 310.317 554.037 C 309.992 553.742, 309.900 553.964, 310.113 554.530 M 324.517 573.949 C 323.589 576.742, 322.471 581.158, 322.033 583.763 C 321.290 588.173, 321.222 588.258, 321.047 585 C 320.944 583.075, 320.476 580.600, 320.008 579.500 C 319.492 578.288, 319.373 580.257, 319.707 584.500 C 320.009 588.350, 320.606 591.885, 321.033 592.355 C 321.460 592.825, 322.331 590.575, 322.967 587.355 C 323.604 584.135, 324.789 578.855, 325.602 575.623 C 327.454 568.252, 326.763 567.186, 324.517 573.949" stroke="none" fill="#b46530" fill-rule="evenodd"/><path d="M 314.476 25.039 C 314.090 25.663, 314.341 26.698, 315.034 27.337 C 316.016 28.243, 316.118 28.169, 315.500 27 C 314.875 25.819, 314.979 25.751, 315.987 26.683 C 316.691 27.334, 317.374 28.909, 317.506 30.183 C 317.898 33.985, 317.963 34.141, 318.903 33.560 C 320.364 32.657, 322.023 38.908, 321.508 43.376 C 321.114 46.788, 321.198 47.068, 321.995 45 C 323.151 41.999, 322.545 63.044, 321.361 67 L 320.613 69.500 319.850 67 C 319.241 65.002, 319.124 65.303, 319.269 68.500 C 319.475 73.065, 316.293 83.299, 314.929 82.456 C 314.430 82.148, 314.319 82.668, 314.681 83.612 C 315.069 84.622, 314.937 85.079, 314.361 84.723 C 313.264 84.045, 306.882 99.521, 304.515 108.597 C 303.669 111.844, 302.679 118.325, 302.315 123 L 301.655 131.500 299.403 126.378 C 294.417 115.036, 293.640 98.665, 297.756 91.688 C 299.687 88.417, 299.695 88.267, 297.926 88.730 C 296.901 88.998, 292.111 92.857, 287.281 97.305 C 282.451 101.753, 280.075 103.617, 282 101.446 L 285.500 97.500 281.828 100.871 C 279.808 102.725, 278.376 104.817, 278.646 105.520 C 278.916 106.223, 278.586 107.138, 277.914 107.553 C 277.080 108.068, 276.949 107.892, 277.500 107 C 278.039 106.127, 277.919 105.932, 277.138 106.415 C 276.494 106.813, 276.208 107.528, 276.502 108.004 C 277.312 109.313, 272.795 117.992, 271.667 117.294 C 271.083 116.933, 270.914 117.562, 271.249 118.845 C 271.560 120.032, 271.465 120.787, 271.039 120.524 C 270.162 119.982, 267.428 131.762, 268.241 132.575 C 268.530 132.864, 268.435 134.571, 268.030 136.368 C 267.055 140.690, 268.626 151.977, 271.063 158.161 C 273.838 165.200, 282.812 178.222, 284.300 177.368 C 284.960 176.989, 285.153 177.061, 284.729 177.527 C 284.305 177.993, 290.411 184.928, 298.297 192.937 C 306.183 200.947, 313.651 208.850, 314.892 210.500 C 316.133 212.150, 316.863 212.938, 316.515 212.250 C 315.415 210.079, 316.876 210.899, 318.065 213.121 C 318.979 214.830, 318.938 215.106, 317.850 214.547 C 317.107 214.164, 317.371 214.558, 318.435 215.422 C 319.500 216.285, 320.443 217.983, 320.533 219.195 C 320.622 220.407, 321.217 221.572, 321.854 221.785 C 322.491 221.997, 322.758 222.582, 322.447 223.085 C 322.136 223.588, 322.344 224, 322.910 224 C 323.475 224, 323.678 224.675, 323.362 225.500 C 323.045 226.325, 323.270 227, 323.862 227 C 324.454 227, 324.650 227.748, 324.299 228.664 C 323.845 229.847, 324.029 230.100, 324.937 229.539 C 325.883 228.954, 326.040 229.300, 325.540 230.875 C 325.169 232.044, 325.278 233, 325.783 233 C 326.288 233, 326.793 238.661, 326.905 245.581 C 327.206 264.082, 324.442 271.302, 311.146 286.751 C 307.766 290.678, 305 294.392, 305 295.005 C 305 295.617, 304.480 295.797, 303.845 295.405 C 303.120 294.956, 302.963 295.131, 303.423 295.875 C 303.845 296.559, 302.884 298.507, 301.152 300.480 C 293.837 308.811, 284.876 328.433, 285.079 335.676 C 285.123 337.244, 285.413 337.853, 285.730 337.046 C 287.542 332.443, 288.752 332.631, 300.243 339.304 C 303.951 341.457, 307.598 342.985, 308.345 342.698 C 309.093 342.411, 307.735 345.624, 305.326 349.838 C 300.367 358.514, 297 368.339, 297 374.130 C 297 379.929, 300.288 388.256, 305.352 395.283 C 311.217 403.422, 324.537 416.559, 325.441 415.096 C 325.818 414.485, 325.426 413.717, 324.569 413.388 C 323.712 413.059, 323.231 412.435, 323.500 412 C 323.769 411.565, 323.269 410.934, 322.391 410.596 C 321.479 410.247, 321.039 409.342, 321.365 408.492 C 321.680 407.671, 321.501 407, 320.969 407 C 320.436 407, 320.053 406.663, 320.118 406.250 C 320.510 403.773, 319.870 401.962, 318.830 402.605 C 318.043 403.091, 317.869 402.783, 318.299 401.664 C 318.650 400.749, 318.614 399.999, 318.219 399.998 C 317.823 399.996, 317.450 398.599, 317.388 396.892 C 317.327 395.185, 316.835 393.499, 316.296 393.144 C 315.713 392.761, 315.370 385.828, 315.450 376 C 315.574 360.751, 315.794 358.894, 318.356 351.500 C 323.337 337.121, 327.627 330.175, 343.991 310 C 351.793 300.381, 354.760 294.244, 356.626 283.865 C 357.872 276.932, 357.928 273.959, 356.953 266.500 C 356.306 261.550, 355.322 256.600, 354.766 255.500 C 352.229 250.480, 356.290 256.167, 360.488 263.511 C 366.602 274.210, 369.178 282.730, 368.798 291 C 368.634 294.575, 368.252 297.725, 367.949 298 C 367.645 298.275, 366.638 300.527, 365.709 303.005 C 364.065 307.393, 356.707 317.374, 355.791 316.458 C 355.539 316.206, 355.333 316.636, 355.333 317.414 C 355.333 318.607, 355.690 318.594, 357.623 317.328 C 358.882 316.503, 360.360 316.105, 360.908 316.443 C 362.423 317.380, 377.057 302.224, 380.821 295.819 C 386.558 286.057, 389.310 276.731, 389.788 265.424 C 390.489 248.854, 387.194 238.752, 376.422 224.439 C 370.899 217.101, 354.250 201.801, 351.320 201.371 C 350.497 201.250, 348.863 200.330, 347.688 199.326 C 346.101 197.970, 346.274 198.476, 348.359 201.293 C 351.684 205.784, 351.884 209.595, 349.422 221.500 C 347.325 231.635, 347.344 235.810, 349.504 240.087 C 352.060 245.147, 350.029 242.645, 342.939 232 C 328.615 210.496, 324.457 198.467, 325.208 180.700 C 325.686 169.372, 328.371 160.145, 333.639 151.728 C 338.616 143.776, 351.445 128.102, 352.104 129.168 C 352.452 129.732, 353.002 129.437, 353.364 128.494 C 353.717 127.573, 353.710 126.341, 353.349 125.755 C 352.987 125.170, 353.158 124.979, 353.728 125.332 C 354.316 125.695, 355.688 123.829, 356.893 121.027 C 364.871 102.482, 363.370 85.022, 352.179 66.185 C 344.616 53.455, 325.886 31.334, 323.775 32.639 C 323.179 33.008, 322.970 32.858, 323.310 32.308 C 323.872 31.398, 321.161 28.400, 316.839 25.151 C 315.617 24.233, 314.993 24.203, 314.476 25.039 M 23 220.796 C 23 222.431, 35.383 237.774, 42.807 245.339 C 60.506 263.372, 77.100 272.676, 109.830 282.916 C 137.058 291.435, 153.621 298.900, 169.802 309.945 C 183.948 319.601, 198.058 333.738, 208.781 349 C 211.293 352.575, 214.234 356.226, 215.318 357.113 C 216.587 358.152, 217.001 359.219, 216.483 360.113 C 216.041 360.876, 216.045 361.169, 216.491 360.766 C 216.937 360.362, 217.841 360.767, 218.498 361.667 C 219.448 362.966, 219.861 363.034, 220.502 361.997 C 221.035 361.134, 220.918 360.933, 220.155 361.405 C 219.514 361.801, 218.963 361.536, 218.917 360.809 C 218.627 356.266, 218.168 354.556, 217.146 354.215 C 216.509 354.003, 216.206 353.476, 216.473 353.044 C 217.143 351.960, 210.112 335.755, 203.928 324.133 C 177.923 275.255, 138.348 245.229, 88 236.175 C 81.675 235.038, 71.100 233.168, 64.500 232.020 C 50.289 229.548, 36.375 225.701, 29.668 222.387 C 24.566 219.867, 23 219.493, 23 220.796 M 610.500 223.063 C 601.718 227.147, 591.899 229.578, 568.432 233.481 C 556.920 235.396, 543.675 238.074, 539 239.434 C 501.284 250.400, 468.765 275.404, 446.573 310.500 C 437.167 325.376, 424.135 353.199, 424.864 356.850 C 425.012 357.593, 424.659 357.907, 424.078 357.548 C 423.420 357.142, 423.265 357.526, 423.665 358.570 C 424.226 360.030, 424.540 359.941, 426.132 357.872 C 427.135 356.567, 427.966 355.888, 427.978 356.362 C 427.990 356.836, 429.644 354.811, 431.653 351.862 C 446.660 329.831, 466.662 312.086, 491 299.212 C 500.970 293.938, 516.715 287.900, 538.500 280.996 C 568.283 271.557, 590.363 257.417, 607.778 236.628 C 620.231 221.763, 620.944 218.207, 610.500 223.063 M 71.480 282.192 C 71.186 282.959, 72.112 287.617, 73.538 292.543 C 81.080 318.593, 98.248 339.901, 123.753 354.869 C 126.642 356.564, 134.742 360.490, 141.753 363.592 C 169.127 375.704, 186.316 386.087, 205 401.797 C 218.795 413.395, 238.469 434.109, 237.124 435.620 C 236.781 436.005, 237.066 435.995, 237.758 435.596 C 240.180 434.202, 239.023 431.102, 228.922 411.919 C 210.176 376.318, 186.001 346.567, 162.488 330.161 C 150.956 322.115, 138.659 316.123, 119.081 309.010 C 100.492 302.256, 87.380 295.024, 78.028 286.366 C 73.794 282.445, 71.856 281.211, 71.480 282.192 M 567.655 282.829 C 566.745 283.835, 566 285.100, 566 285.641 C 566 286.181, 564.538 287.677, 562.750 288.963 L 559.500 291.303 562.500 287.925 C 564.574 285.590, 563.953 285.949, 560.490 289.090 C 551.450 297.285, 541.187 302.530, 516.500 311.573 C 484.082 323.447, 461.876 340.666, 438.567 372 C 424.896 390.377, 401.640 432.042, 404.177 433.610 C 404.905 434.059, 406.327 433.019, 407.849 430.922 C 412.945 423.906, 433.905 404.182, 445.697 395.307 C 459.822 384.677, 472.648 376.913, 487.778 369.834 C 493.675 367.075, 502.775 362.800, 508 360.333 C 538.884 345.752, 560.908 321.370, 568.879 292.936 C 571.986 281.857, 571.578 278.494, 567.655 282.829 M 385.529 338.133 C 386.770 343.781, 386.224 360.350, 384.564 367.442 C 382.182 377.622, 378.635 384.900, 368.698 400 C 357.902 416.405, 349.466 433.450, 344.157 449.586 C 340.026 462.141, 335.547 480.880, 336.459 481.792 C 336.747 482.080, 336.472 482.931, 335.848 483.683 C 335.225 484.434, 334.714 487.500, 334.714 490.495 C 334.714 493.491, 334.413 495.755, 334.044 495.527 C 333.675 495.299, 333.311 499.148, 333.234 504.081 C 333.119 511.446, 333.327 512.816, 334.396 511.747 C 335.112 511.031, 336.286 508.657, 337.004 506.472 C 339.243 499.659, 346.717 484.246, 352.117 475.307 C 354.961 470.598, 364.205 457.532, 372.659 446.272 C 381.113 435.012, 389.880 422.685, 392.141 418.879 C 404.699 397.741, 406.332 372.573, 396.522 351.341 C 390.650 338.631, 383.842 330.452, 385.529 338.133 M 253.830 338.260 C 249.942 341.424, 243.942 355.495, 241.442 367.315 C 239.560 376.209, 239.603 391.035, 241.532 398.540 C 244.873 411.542, 251.346 422.226, 272.103 449 C 283.001 463.056, 291.516 476.196, 298.350 489.500 C 301.457 495.550, 304.372 500.960, 304.826 501.522 C 305.280 502.084, 305.447 503.159, 305.196 503.911 C 304.892 504.825, 305.172 505.012, 306.040 504.475 C 306.974 503.898, 307.160 504.141, 306.701 505.336 C 306.350 506.252, 306.546 507, 307.138 507 C 307.745 507, 307.926 507.750, 307.554 508.720 C 307.191 509.665, 307.229 510.105, 307.637 509.696 C 308.046 509.287, 308.871 510.152, 309.470 511.617 C 310.461 514.042, 310.580 513.773, 310.795 508.641 C 310.925 505.538, 310.686 502.999, 310.265 502.997 C 309.844 502.996, 309.418 500.193, 309.317 496.770 C 309.216 493.346, 308.702 490.401, 308.173 490.224 C 307.645 490.048, 307.427 489.082, 307.690 488.078 C 308.373 485.467, 300.491 454.259, 296.306 443 C 291.213 429.298, 282.943 413.594, 273.242 399.203 C 259.754 379.197, 256.914 371.065, 256.465 351.165 C 256.300 343.831, 255.982 337.649, 255.759 337.426 C 255.536 337.203, 254.668 337.579, 253.830 338.260 M 106.492 373.014 C 105.382 374.809, 118.256 395.043, 125.354 402.658 C 135.119 413.134, 146.072 420.064, 163.250 426.636 C 191.254 437.349, 221.939 454.181, 239.250 468.325 C 242.412 470.909, 245 472.801, 245 472.530 C 245 471.102, 271.434 497.920, 278.483 506.500 C 290.159 520.712, 303.883 541.622, 307.520 550.744 C 308.450 553.077, 309.567 554.768, 310.001 554.499 C 311.068 553.840, 312.173 556.911, 311.349 558.245 C 310.933 558.918, 311.174 559.011, 312.003 558.498 C 312.980 557.894, 313.171 558.238, 312.751 559.845 C 312.386 561.241, 312.566 561.768, 313.263 561.337 C 313.951 560.912, 314.102 561.292, 313.681 562.388 C 313.319 563.332, 313.431 563.851, 313.931 563.543 C 315.051 562.850, 317.383 569.571, 316.512 570.980 C 316.166 571.541, 316.344 572, 316.910 572 C 317.475 572, 317.678 572.675, 317.362 573.500 C 317.045 574.326, 317.332 575, 318 575 C 318.668 575, 318.966 575.646, 318.663 576.435 C 318.360 577.225, 318.559 578.020, 319.106 578.202 C 319.652 578.384, 320.474 580.776, 320.932 583.516 C 321.559 587.270, 321.794 587.724, 321.882 585.355 C 322.066 580.435, 325.944 568.848, 327.156 569.597 C 327.852 570.027, 327.970 569.480, 327.500 568 C 327.047 566.573, 327.157 565.979, 327.800 566.376 C 328.421 566.760, 328.595 566.169, 328.249 564.845 C 327.829 563.238, 328.020 562.894, 328.997 563.498 C 329.826 564.011, 330.067 563.918, 329.651 563.245 C 328.713 561.726, 330.003 558.884, 331.275 559.670 C 331.943 560.083, 332.102 559.708, 331.701 558.664 C 330.921 556.629, 331.877 553.806, 333.093 554.558 C 333.579 554.858, 333.681 554.332, 333.319 553.388 C 332.875 552.231, 333.038 551.905, 333.819 552.388 C 334.562 552.848, 334.775 552.576, 334.411 551.629 C 334.100 550.818, 334.743 549.257, 335.839 548.161 C 336.936 547.064, 337.571 545.904, 337.250 545.583 C 336.929 545.263, 337.120 545, 337.674 545 C 338.578 545, 344.166 535.817, 344.048 534.526 C 344.022 534.237, 344.916 533.084, 346.036 531.964 C 347.157 530.843, 347.805 529.493, 347.477 528.964 C 347.150 528.434, 347.270 528, 347.744 528 C 348.218 528, 350.577 525.188, 352.987 521.750 C 369.096 498.765, 392.858 475.048, 415 459.852 C 431.827 448.305, 452.878 437.218, 473.732 428.921 C 496.170 419.994, 503.192 415.796, 514.585 404.500 C 521.083 398.057, 526.259 391.832, 529.134 387 C 534.097 378.662, 536.551 373.218, 535.721 372.388 C 534.862 371.528, 529.950 375.110, 530.583 376.134 C 530.894 376.638, 530.778 376.928, 530.324 376.779 C 529.871 376.630, 525.846 378.411, 521.381 380.736 C 516.915 383.062, 505.016 387.702, 494.938 391.048 C 465.050 400.969, 439.125 415.321, 412.536 436.662 C 398.300 448.089, 377.728 468.708, 367 482.303 C 359.239 492.138, 341.939 518.270, 342.149 519.841 C 342.411 521.802, 341.881 523.044, 341.011 522.507 C 340.424 522.144, 340.290 522.593, 340.681 523.612 C 341.125 524.769, 340.962 525.095, 340.181 524.612 C 339.401 524.130, 339.238 524.456, 339.681 525.612 C 340.125 526.769, 339.962 527.095, 339.181 526.612 C 338.401 526.130, 338.238 526.456, 338.681 527.612 C 339.125 528.769, 338.962 529.095, 338.181 528.612 C 337.401 528.130, 337.238 528.456, 337.681 529.612 C 338.125 530.769, 337.962 531.095, 337.181 530.612 C 336.401 530.130, 336.238 530.456, 336.681 531.612 C 337.164 532.868, 336.985 533.109, 336.015 532.510 C 335.180 531.993, 334.931 532.080, 335.342 532.744 C 336.160 534.068, 332.582 542.248, 331.609 541.276 C 331.216 540.883, 331.220 541.409, 331.617 542.445 C 332.091 543.680, 331.969 544.099, 331.263 543.663 C 330.566 543.232, 330.386 543.759, 330.751 545.155 C 331.135 546.623, 330.949 547.086, 330.169 546.604 C 329.426 546.145, 329.232 546.442, 329.618 547.448 C 329.947 548.304, 329.691 549, 329.048 549 C 328.407 549, 328.163 549.454, 328.506 550.009 C 329.426 551.498, 328.027 555.135, 326.821 554.389 C 326.161 553.982, 326.030 554.520, 326.460 555.875 C 326.833 557.049, 326.699 558, 326.161 558 C 325.625 558, 325.409 559.013, 325.680 560.250 C 326.079 562.067, 325.965 562.212, 325.088 561 C 324.260 559.856, 324.141 560.330, 324.586 563 C 325.038 565.715, 324.918 566.164, 324.054 565 C 323.184 563.829, 323.087 564.136, 323.615 566.399 C 324.107 568.507, 323.968 569.098, 323.106 568.565 C 322.254 568.039, 322.103 568.560, 322.568 570.416 C 322.974 572.031, 322.801 573, 322.108 573 C 321.499 573, 320.993 571.763, 320.985 570.250 C 320.972 568.028, 320.764 567.788, 319.900 569 C 319.088 570.140, 318.968 569.708, 319.401 567.200 C 319.800 564.888, 319.632 564.110, 318.839 564.599 C 318.045 565.090, 317.909 564.436, 318.385 562.399 C 318.912 560.140, 318.816 559.831, 317.949 561 C 317.077 562.177, 316.972 561.891, 317.459 559.666 C 317.910 557.607, 317.753 557.035, 316.883 557.573 C 316.042 558.092, 315.853 557.670, 316.249 556.155 C 316.611 554.772, 316.431 554.234, 315.749 554.655 C 315.067 555.076, 314.888 554.538, 315.249 553.155 C 315.611 551.772, 315.431 551.234, 314.749 551.655 C 314.067 552.076, 313.888 551.538, 314.249 550.155 C 314.595 548.831, 314.421 548.240, 313.800 548.624 C 313.157 549.021, 313.047 548.427, 313.500 547 C 313.948 545.587, 313.841 544.980, 313.212 545.369 C 312.059 546.082, 310.714 543.273, 311.556 541.910 C 311.865 541.409, 311.593 541, 310.952 541 C 310.309 541, 310.053 540.304, 310.382 539.448 C 310.771 538.434, 310.575 538.144, 309.819 538.612 C 309.038 539.095, 308.875 538.769, 309.319 537.612 C 309.710 536.593, 309.576 536.144, 308.989 536.507 C 308.087 537.064, 307.614 535.470, 307.730 532.261 C 307.754 531.579, 307.299 531.316, 306.717 531.675 C 306.052 532.086, 305.904 531.692, 306.319 530.612 C 306.762 529.456, 306.599 529.130, 305.819 529.612 C 305.038 530.095, 304.875 529.769, 305.319 528.612 C 305.762 527.456, 305.599 527.130, 304.819 527.612 C 304.038 528.095, 303.875 527.769, 304.319 526.612 C 304.710 525.593, 304.576 525.144, 303.989 525.507 C 303.119 526.044, 302.841 525.411, 303.067 523.409 C 303.103 523.084, 302.359 522.252, 301.414 521.561 C 300.343 520.778, 299.999 519.811, 300.502 518.997 C 301.035 518.134, 300.918 517.933, 300.155 518.405 C 299.520 518.797, 298.966 518.754, 298.923 518.309 C 298.615 515.051, 297.077 512.247, 288.701 499.684 C 268.652 469.613, 240.032 441.893, 205.299 418.903 C 187.217 406.935, 169.332 398.366, 146.100 390.540 C 127.766 384.363, 117.580 379.759, 110.311 374.360 C 108.371 372.919, 106.876 372.392, 106.492 373.014" stroke="none" fill="#f9e5a3" fill-rule="evenodd"/></svg>